<?xml version="1.0" encoding="utf-8"?>
<!-- Generator: Adobe Illustrator 17.0.0, SVG Export Plug-In . SVG Version: 6.00 Build 0)  -->
<!DOCTYPE svg PUBLIC "-//W3C//DTD SVG 1.1//EN" "http://www.w3.org/Graphics/SVG/1.1/DTD/svg11.dtd">
<svg version="1.1" xmlns="http://www.w3.org/2000/svg" xmlns:xlink="http://www.w3.org/1999/xlink" x="0px" y="0px" width="600px"
	 height="600px" viewBox="0 0 600 600" enable-background="new 0 0 600 600" xml:space="preserve">
<g id="fill">
	<path fill="#FAFAFA" d="M529.971,114.425c-6.473-7.988-13.537-15.724-21.104-23.376c-19.339-19.256-40.024-35.4-62.055-48.265
		C403.172,17.307,354.151,4.61,300,4.61c-54.15,0-103.172,12.697-146.813,38.175c-14.21,8.324-27.916,17.91-41.034,29.01
		c-7.147,6.053-14.209,12.443-21.105,19.254c-20.852,21.021-38.005,43.556-51.375,67.604v282.609
		c13.369,24.133,30.523,46.667,51.376,67.521C148.817,566.55,218.439,595.39,300,595.39s151.184-28.842,208.866-86.607
		c20.937-20.937,38.09-43.471,51.46-67.521V158.738C551.75,143.35,541.659,128.468,529.971,114.425z M300.5,544.667
		C165.374,544.667,55.833,435.126,55.833,300S165.374,55.333,300.5,55.333S545.167,164.874,545.167,300
		S435.626,544.667,300.5,544.667z"/>
</g>
<g id="lines">
	<path d="M303.197,24.034c0.168,0,0.421,0,0.757,0c6.726,0.168,13.286,0.589,19.928,1.345l1.43-12.445
		c-9.669-1.177-19.508-1.681-29.43-1.513c-7.904,0-15.808,0.504-23.797,1.345l1.262,12.529c7.568-0.841,15.135-1.262,22.535-1.262
		c0.336,0,0.589,0,0.925,0c1.345,4.288,2.523,7.064,3.279,8.072l0.168-5.97l-0.168,5.97
		C300.674,31.265,301.682,28.575,303.197,24.034z"/>
	<path fill="#F5F7FC" d="M300.086,55.566v-3.868l-0.085,3.868H300.086z"/>
	
		<line fill="none" stroke="#000000" stroke-width="0.25" stroke-linecap="round" stroke-linejoin="round" stroke-miterlimit="10" x1="463.547" y1="118.293" x2="469.6" y2="111.65"/>
	
		<line fill="none" stroke="#000000" stroke-width="0.25" stroke-linecap="round" stroke-linejoin="round" stroke-miterlimit="10" x1="447.318" y1="104.671" x2="452.447" y2="97.692"/>
	
		<line fill="none" stroke="#000000" stroke-width="0.25" stroke-linecap="round" stroke-linejoin="round" stroke-miterlimit="10" x1="459.51" y1="103.073" x2="453.876" y2="109.8"/>
	
		<line fill="none" stroke="#000000" stroke-width="0.25" stroke-linecap="round" stroke-linejoin="round" stroke-miterlimit="10" x1="465.817" y1="102.401" x2="457.155" y2="112.574"/>
	
		<line fill="none" stroke="#000000" stroke-width="0.25" stroke-linecap="round" stroke-linejoin="round" stroke-miterlimit="10" x1="466.069" y1="108.791" x2="460.436" y2="115.434"/>
	
		<line fill="none" stroke="#000000" stroke-width="0.25" stroke-linecap="round" stroke-linejoin="round" stroke-miterlimit="10" x1="455.895" y1="100.214" x2="450.682" y2="107.278"/>
	
		<line fill="none" stroke="#000000" stroke-width="0.25" stroke-linecap="round" stroke-linejoin="round" stroke-miterlimit="10" x1="441.6" y1="90.04" x2="436.807" y2="96.935"/>
	
		<line fill="none" stroke="#000000" stroke-width="0.25" stroke-linecap="round" stroke-linejoin="round" stroke-miterlimit="10" x1="433.36" y1="94.581" x2="438.152" y2="87.517"/>
	
		<line fill="none" stroke="#000000" stroke-width="0.25" stroke-linecap="round" stroke-linejoin="round" stroke-miterlimit="10" x1="447.991" y1="88.779" x2="440.422" y2="99.373"/>
	
		<line fill="none" stroke="#000000" stroke-width="0.25" stroke-linecap="round" stroke-linejoin="round" stroke-miterlimit="10" x1="448.831" y1="94.749" x2="443.786" y2="101.98"/>
	
		<line fill="none" stroke="#000000" stroke-width="0.25" stroke-linecap="round" stroke-linejoin="round" stroke-miterlimit="10" x1="472.711" y1="114.508" x2="466.489" y2="121.068"/>
	
		<line fill="none" stroke="#000000" stroke-width="0.25" stroke-linecap="round" stroke-linejoin="round" stroke-miterlimit="10" x1="488.351" y1="130.401" x2="481.54" y2="136.286"/>
	
		<line fill="none" stroke="#000000" stroke-width="0.25" stroke-linecap="round" stroke-linejoin="round" stroke-miterlimit="10" x1="485.24" y1="127.205" x2="478.682" y2="133.175"/>
	
		<line fill="none" stroke="#000000" stroke-width="0.25" stroke-linecap="round" stroke-linejoin="round" stroke-miterlimit="10" x1="475.907" y1="130.233" x2="482.297" y2="124.094"/>
	
		<line fill="none" stroke="#000000" stroke-width="0.25" stroke-linecap="round" stroke-linejoin="round" stroke-miterlimit="10" x1="491.21" y1="133.596" x2="484.484" y2="139.482"/>
	
		<line fill="none" stroke="#000000" stroke-width="0.25" stroke-linecap="round" stroke-linejoin="round" stroke-miterlimit="10" x1="497.6" y1="134.269" x2="487.259" y2="142.677"/>
	
		<line fill="none" stroke="#000000" stroke-width="0.25" stroke-linecap="round" stroke-linejoin="round" stroke-miterlimit="10" x1="418.729" y1="85.583" x2="422.849" y2="78.268"/>
	
		<line fill="none" stroke="#000000" stroke-width="0.25" stroke-linecap="round" stroke-linejoin="round" stroke-miterlimit="10" x1="475.99" y1="117.704" x2="469.852" y2="124.094"/>
	
		<line fill="none" stroke="#000000" stroke-width="0.25" stroke-linecap="round" stroke-linejoin="round" stroke-miterlimit="10" x1="482.297" y1="117.704" x2="472.796" y2="127.122"/>
	
		<line fill="none" stroke="#000000" stroke-width="0.25" stroke-linecap="round" stroke-linejoin="round" stroke-miterlimit="10" x1="428.903" y1="76.587" x2="422.597" y2="87.77"/>
	
		<line fill="none" stroke="#000000" stroke-width="0.25" stroke-linecap="round" stroke-linejoin="round" stroke-miterlimit="10" x1="430.501" y1="82.725" x2="426.128" y2="89.956"/>
	
		<line fill="none" stroke="#000000" stroke-width="0.25" stroke-linecap="round" stroke-linejoin="round" stroke-miterlimit="10" x1="434.285" y1="84.995" x2="429.913" y2="92.311"/>
	
		<line fill="none" stroke="#000000" stroke-width="0.25" stroke-linecap="round" stroke-linejoin="round" stroke-miterlimit="10" x1="375.678" y1="66.833" x2="378.368" y2="58.845"/>
	
		<line fill="none" stroke="#000000" stroke-width="0.25" stroke-linecap="round" stroke-linejoin="round" stroke-miterlimit="10" x1="369.707" y1="56.322" x2="367.69" y2="64.394"/>
	
		<line fill="none" stroke="#000000" stroke-width="0.25" stroke-linecap="round" stroke-linejoin="round" stroke-miterlimit="10" x1="359.366" y1="62.292" x2="361.383" y2="54.051"/>
	
		<line fill="none" stroke="#000000" stroke-width="0.25" stroke-linecap="round" stroke-linejoin="round" stroke-miterlimit="10" x1="366.849" y1="50.94" x2="363.485" y2="63.301"/>
	
		<line fill="none" stroke="#000000" stroke-width="0.25" stroke-linecap="round" stroke-linejoin="round" stroke-miterlimit="10" x1="374.163" y1="57.583" x2="371.641" y2="65.571"/>
	
		<line fill="none" stroke="#000000" stroke-width="0.25" stroke-linecap="round" stroke-linejoin="round" stroke-miterlimit="10" x1="382.404" y1="60.443" x2="379.882" y2="68.178"/>
	
		<line fill="none" stroke="#000000" stroke-width="0.25" stroke-linecap="round" stroke-linejoin="round" stroke-miterlimit="10" x1="411.077" y1="72.214" x2="407.378" y2="79.614"/>
	
		<line fill="none" stroke="#000000" stroke-width="0.25" stroke-linecap="round" stroke-linejoin="round" stroke-miterlimit="10" x1="414.946" y1="74.065" x2="411.246" y2="81.463"/>
	
		<line fill="none" stroke="#000000" stroke-width="0.25" stroke-linecap="round" stroke-linejoin="round" stroke-miterlimit="10" x1="391.906" y1="72.635" x2="394.849" y2="64.899"/>
	
		<line fill="none" stroke="#000000" stroke-width="0.25" stroke-linecap="round" stroke-linejoin="round" stroke-miterlimit="10" x1="409.143" y1="66.16" x2="403.594" y2="77.763"/>
	
		<line fill="none" stroke="#000000" stroke-width="0.25" stroke-linecap="round" stroke-linejoin="round" stroke-miterlimit="10" x1="403.173" y1="68.346" x2="399.641" y2="75.914"/>
	
		<line fill="none" stroke="#000000" stroke-width="0.25" stroke-linecap="round" stroke-linejoin="round" stroke-miterlimit="10" x1="399.053" y1="66.833" x2="395.858" y2="74.233"/>
	
		<line fill="none" stroke="#000000" stroke-width="0.25" stroke-linecap="round" stroke-linejoin="round" stroke-miterlimit="10" x1="390.645" y1="63.301" x2="387.87" y2="71.121"/>
	
		<line fill="none" stroke="#000000" stroke-width="0.25" stroke-linecap="round" stroke-linejoin="round" stroke-miterlimit="10" x1="388.123" y1="57.583" x2="383.666" y2="69.439"/>
	
		<line fill="none" stroke="#000000" stroke-width="0.25" stroke-linecap="round" stroke-linejoin="round" stroke-miterlimit="10" x1="181.105" y1="76.334" x2="184.805" y2="83.566"/>
	
		<line fill="none" stroke="#000000" stroke-width="0.25" stroke-linecap="round" stroke-linejoin="round" stroke-miterlimit="10" x1="169.501" y1="82.725" x2="173.621" y2="90.04"/>
	
		<line fill="none" stroke="#000000" stroke-width="0.25" stroke-linecap="round" stroke-linejoin="round" stroke-miterlimit="10" x1="300.001" y1="55.566" x2="300.086" y2="51.698"/>
	
		<line fill="none" stroke="#000000" stroke-width="0.25" stroke-linecap="round" stroke-linejoin="round" stroke-miterlimit="10" x1="351.04" y1="60.443" x2="352.555" y2="52.202"/>
	
		<line fill="none" stroke="#000000" stroke-width="0.25" stroke-linecap="round" stroke-linejoin="round" stroke-miterlimit="10" x1="357.011" y1="53.127" x2="355.161" y2="61.283"/>
	
		<line fill="none" stroke="#000000" stroke-width="0.25" stroke-linecap="round" stroke-linejoin="round" stroke-miterlimit="10" x1="346.584" y1="59.686" x2="348.35" y2="51.193"/>
	
		<line fill="none" stroke="#000000" stroke-width="0.25" stroke-linecap="round" stroke-linejoin="round" stroke-miterlimit="10" x1="339.521" y1="49.595" x2="338.26" y2="58.256"/>
	
		<line fill="none" stroke="#000000" stroke-width="0.25" stroke-linecap="round" stroke-linejoin="round" stroke-miterlimit="10" x1="330.86" y1="48.418" x2="329.683" y2="57.162"/>
	
		<line fill="none" stroke="#000000" stroke-width="0.25" stroke-linecap="round" stroke-linejoin="round" stroke-miterlimit="10" x1="344.902" y1="45.812" x2="342.465" y2="58.928"/>
	
		<line fill="none" stroke="#000000" stroke-width="0.25" stroke-linecap="round" stroke-linejoin="round" stroke-miterlimit="10" x1="335.316" y1="49.006" x2="334.139" y2="57.668"/>
	
		<line fill="none" stroke="#000000" stroke-width="0.25" stroke-linecap="round" stroke-linejoin="round" stroke-miterlimit="10" x1="317.491" y1="47.072" x2="316.817" y2="55.986"/>
	
		<line fill="none" stroke="#000000" stroke-width="0.25" stroke-linecap="round" stroke-linejoin="round" stroke-miterlimit="10" x1="313.37" y1="46.736" x2="312.782" y2="55.817"/>
	
		<line fill="none" stroke="#000000" stroke-width="0.25" stroke-linecap="round" stroke-linejoin="round" stroke-miterlimit="10" x1="308.914" y1="46.736" x2="308.661" y2="55.649"/>
	
		<line fill="none" stroke="#000000" stroke-width="0.25" stroke-linecap="round" stroke-linejoin="round" stroke-miterlimit="10" x1="304.458" y1="46.736" x2="304.121" y2="55.566"/>
	
		<line fill="none" stroke="#000000" stroke-width="0.25" stroke-linecap="round" stroke-linejoin="round" stroke-miterlimit="10" x1="322.62" y1="42.953" x2="321.443" y2="56.406"/>
	
		<line fill="none" stroke="#000000" stroke-width="0.25" stroke-linecap="round" stroke-linejoin="round" stroke-miterlimit="10" x1="326.404" y1="47.998" x2="325.479" y2="56.743"/>
	
		<line fill="none" stroke="#000000" stroke-width="0.25" stroke-linecap="round" stroke-linejoin="round" stroke-miterlimit="10" x1="418.981" y1="76.334" x2="415.029" y2="83.481"/>
	
		<line fill="none" stroke="#000000" stroke-width="0.25" stroke-linecap="round" stroke-linejoin="round" stroke-miterlimit="10" x1="260.229" y1="49.595" x2="261.743" y2="58.256"/>
	
		<line fill="none" stroke="#000000" stroke-width="0.25" stroke-linecap="round" stroke-linejoin="round" stroke-miterlimit="10" x1="247.196" y1="52.202" x2="248.962" y2="60.443"/>
	
		<line fill="none" stroke="#000000" stroke-width="0.25" stroke-linecap="round" stroke-linejoin="round" stroke-miterlimit="10" x1="251.653" y1="51.193" x2="253.081" y2="59.686"/>
	
		<line fill="none" stroke="#000000" stroke-width="0.25" stroke-linecap="round" stroke-linejoin="round" stroke-miterlimit="10" x1="244.842" y1="61.283" x2="243.076" y2="53.127"/>
	
		<line fill="none" stroke="#000000" stroke-width="0.25" stroke-linecap="round" stroke-linejoin="round" stroke-miterlimit="10" x1="273.599" y1="47.998" x2="274.608" y2="56.658"/>
	
		<line fill="none" stroke="#000000" stroke-width="0.25" stroke-linecap="round" stroke-linejoin="round" stroke-miterlimit="10" x1="282.175" y1="47.072" x2="282.847" y2="55.986"/>
	
		<line fill="none" stroke="#000000" stroke-width="0.25" stroke-linecap="round" stroke-linejoin="round" stroke-miterlimit="10" x1="277.466" y1="42.784" x2="278.727" y2="56.322"/>
	
		<line fill="none" stroke="#000000" stroke-width="0.25" stroke-linecap="round" stroke-linejoin="round" stroke-miterlimit="10" x1="295.628" y1="46.736" x2="295.881" y2="55.566"/>
	
		<line fill="none" stroke="#000000" stroke-width="0.25" stroke-linecap="round" stroke-linejoin="round" stroke-miterlimit="10" x1="291.088" y1="46.736" x2="291.424" y2="55.649"/>
	
		<line fill="none" stroke="#000000" stroke-width="0.25" stroke-linecap="round" stroke-linejoin="round" stroke-miterlimit="10" x1="286.632" y1="46.736" x2="287.22" y2="55.817"/>
	
		<line fill="none" stroke="#000000" stroke-width="0.25" stroke-linecap="round" stroke-linejoin="round" stroke-miterlimit="10" x1="255.184" y1="45.812" x2="257.622" y2="58.928"/>
	
		<line fill="none" stroke="#000000" stroke-width="0.25" stroke-linecap="round" stroke-linejoin="round" stroke-miterlimit="10" x1="269.142" y1="48.418" x2="270.067" y2="57.162"/>
	
		<line fill="none" stroke="#000000" stroke-width="0.25" stroke-linecap="round" stroke-linejoin="round" stroke-miterlimit="10" x1="264.686" y1="49.006" x2="265.863" y2="57.668"/>
	
		<line fill="none" stroke="#000000" stroke-width="0.25" stroke-linecap="round" stroke-linejoin="round" stroke-miterlimit="10" x1="184.805" y1="74.065" x2="188.588" y2="81.547"/>
	
		<line fill="none" stroke="#000000" stroke-width="0.25" stroke-linecap="round" stroke-linejoin="round" stroke-miterlimit="10" x1="189.009" y1="72.214" x2="192.456" y2="79.614"/>
	
		<line fill="none" stroke="#000000" stroke-width="0.25" stroke-linecap="round" stroke-linejoin="round" stroke-miterlimit="10" x1="196.997" y1="68.346" x2="200.361" y2="75.829"/>
	
		<line fill="none" stroke="#000000" stroke-width="0.25" stroke-linecap="round" stroke-linejoin="round" stroke-miterlimit="10" x1="205.153" y1="64.899" x2="208.096" y2="72.55"/>
	
		<line fill="none" stroke="#000000" stroke-width="0.25" stroke-linecap="round" stroke-linejoin="round" stroke-miterlimit="10" x1="201.033" y1="66.833" x2="204.229" y2="74.148"/>
	
		<line fill="none" stroke="#000000" stroke-width="0.25" stroke-linecap="round" stroke-linejoin="round" stroke-miterlimit="10" x1="190.859" y1="66.16" x2="196.241" y2="77.848"/>
	
		<line fill="none" stroke="#000000" stroke-width="0.25" stroke-linecap="round" stroke-linejoin="round" stroke-miterlimit="10" x1="229.958" y1="56.322" x2="232.312" y2="64.394"/>
	
		<line fill="none" stroke="#000000" stroke-width="0.25" stroke-linecap="round" stroke-linejoin="round" stroke-miterlimit="10" x1="233.238" y1="50.94" x2="236.517" y2="63.217"/>
	
		<line fill="none" stroke="#000000" stroke-width="0.25" stroke-linecap="round" stroke-linejoin="round" stroke-miterlimit="10" x1="240.637" y1="62.292" x2="238.619" y2="54.051"/>
	
		<line fill="none" stroke="#000000" stroke-width="0.25" stroke-linecap="round" stroke-linejoin="round" stroke-miterlimit="10" x1="224.324" y1="66.833" x2="221.802" y2="58.845"/>
	
		<line fill="none" stroke="#000000" stroke-width="0.25" stroke-linecap="round" stroke-linejoin="round" stroke-miterlimit="10" x1="217.683" y1="60.443" x2="220.205" y2="68.094"/>
	
		<line fill="none" stroke="#000000" stroke-width="0.25" stroke-linecap="round" stroke-linejoin="round" stroke-miterlimit="10" x1="225.839" y1="57.583" x2="228.192" y2="65.571"/>
	
		<line fill="none" stroke="#000000" stroke-width="0.25" stroke-linecap="round" stroke-linejoin="round" stroke-miterlimit="10" x1="209.021" y1="63.301" x2="212.132" y2="71.037"/>
	
		<line fill="none" stroke="#000000" stroke-width="0.25" stroke-linecap="round" stroke-linejoin="round" stroke-miterlimit="10" x1="211.88" y1="57.583" x2="216.085" y2="69.524"/>
	
		<line fill="none" stroke="#000000" stroke-width="0.25" stroke-linecap="round" stroke-linejoin="round" stroke-miterlimit="10" x1="118.209" y1="136.371" x2="111.567" y2="130.401"/>
	
		<line fill="none" stroke="#000000" stroke-width="0.25" stroke-linecap="round" stroke-linejoin="round" stroke-miterlimit="10" x1="114.509" y1="127.205" x2="121.069" y2="133.26"/>
	
		<line fill="none" stroke="#000000" stroke-width="0.25" stroke-linecap="round" stroke-linejoin="round" stroke-miterlimit="10" x1="117.705" y1="124.094" x2="124.012" y2="130.149"/>
	
		<line fill="none" stroke="#000000" stroke-width="0.25" stroke-linecap="round" stroke-linejoin="round" stroke-miterlimit="10" x1="108.792" y1="133.596" x2="115.351" y2="139.565"/>
	
		<line fill="none" stroke="#000000" stroke-width="0.25" stroke-linecap="round" stroke-linejoin="round" stroke-miterlimit="10" x1="102.485" y1="134.269" x2="112.66" y2="142.593"/>
	
		<line fill="none" stroke="#000000" stroke-width="0.25" stroke-linecap="round" stroke-linejoin="round" stroke-miterlimit="10" x1="158.403" y1="90.04" x2="163.195" y2="96.851"/>
	
		<line fill="none" stroke="#000000" stroke-width="0.25" stroke-linecap="round" stroke-linejoin="round" stroke-miterlimit="10" x1="161.933" y1="87.517" x2="166.642" y2="94.496"/>
	
		<line fill="none" stroke="#000000" stroke-width="0.25" stroke-linecap="round" stroke-linejoin="round" stroke-miterlimit="10" x1="136.372" y1="118.208" x2="130.486" y2="111.65"/>
	
		<line fill="none" stroke="#000000" stroke-width="0.25" stroke-linecap="round" stroke-linejoin="round" stroke-miterlimit="10" x1="144.108" y1="100.214" x2="149.321" y2="107.278"/>
	
		<line fill="none" stroke="#000000" stroke-width="0.25" stroke-linecap="round" stroke-linejoin="round" stroke-miterlimit="10" x1="140.66" y1="103.073" x2="146.126" y2="109.8"/>
	
		<line fill="none" stroke="#000000" stroke-width="0.25" stroke-linecap="round" stroke-linejoin="round" stroke-miterlimit="10" x1="147.639" y1="97.692" x2="152.684" y2="104.503"/>
	
		<line fill="none" stroke="#000000" stroke-width="0.25" stroke-linecap="round" stroke-linejoin="round" stroke-miterlimit="10" x1="134.27" y1="102.401" x2="142.678" y2="112.659"/>
	
		<line fill="none" stroke="#000000" stroke-width="0.25" stroke-linecap="round" stroke-linejoin="round" stroke-miterlimit="10" x1="133.597" y1="108.791" x2="139.567" y2="115.266"/>
	
		<line fill="none" stroke="#000000" stroke-width="0.25" stroke-linecap="round" stroke-linejoin="round" stroke-miterlimit="10" x1="151.171" y1="94.749" x2="156.216" y2="101.896"/>
	
		<line fill="none" stroke="#000000" stroke-width="0.25" stroke-linecap="round" stroke-linejoin="round" stroke-miterlimit="10" x1="127.291" y1="114.508" x2="133.261" y2="121.151"/>
	
		<line fill="none" stroke="#000000" stroke-width="0.25" stroke-linecap="round" stroke-linejoin="round" stroke-miterlimit="10" x1="152.096" y1="88.779" x2="159.663" y2="99.29"/>
	
		<line fill="none" stroke="#000000" stroke-width="0.25" stroke-linecap="round" stroke-linejoin="round" stroke-miterlimit="10" x1="117.705" y1="117.704" x2="127.123" y2="127.037"/>
	
		<line fill="none" stroke="#000000" stroke-width="0.25" stroke-linecap="round" stroke-linejoin="round" stroke-miterlimit="10" x1="124.012" y1="117.704" x2="130.15" y2="124.094"/>
	
		<line fill="none" stroke="#000000" stroke-width="0.25" stroke-linecap="round" stroke-linejoin="round" stroke-miterlimit="10" x1="165.718" y1="84.995" x2="170.174" y2="92.226"/>
	
		<line fill="none" stroke="#000000" stroke-width="0.25" stroke-linecap="round" stroke-linejoin="round" stroke-miterlimit="10" x1="177.238" y1="78.268" x2="181.273" y2="85.5"/>
	
		<line fill="none" stroke="#000000" stroke-width="0.25" stroke-linecap="round" stroke-linejoin="round" stroke-miterlimit="10" x1="171.099" y1="76.587" x2="177.406" y2="87.685"/>
	
		<polyline fill="none" stroke="#000000" stroke-width="0.25" stroke-linecap="round" stroke-linejoin="round" stroke-miterlimit="10" points="
		300.254,26.135 300.086,32.105 300.086,51.698 	"/>
	
		<line fill="none" stroke="#0085B8" stroke-width="0.25" stroke-linecap="round" stroke-linejoin="round" stroke-miterlimit="10" x1="300.086" y1="51.698" x2="300.086" y2="55.566"/>
	
		<path fill="none" stroke="#000000" stroke-width="0.25" stroke-linecap="round" stroke-linejoin="round" stroke-miterlimit="10" d="
		M508.868,91.049c-19.339-19.256-40.024-35.4-62.055-48.265C403.173,17.307,354.151,4.61,300.001,4.61
		S196.829,17.307,153.188,42.785c-14.21,8.324-27.916,17.91-41.034,29.01c-7.147,6.053-14.209,12.443-21.105,19.254
		c-20.852,21.021-38.005,43.556-51.375,67.604v282.609c13.369,24.133,30.523,46.667,51.376,67.521
		c57.767,57.767,127.389,86.607,208.951,86.607s151.184-28.842,208.866-86.607c20.937-20.937,38.09-43.471,51.46-67.521V158.738
		c-8.577-15.388-18.667-30.27-30.355-44.313C523.499,106.437,516.435,98.701,508.868,91.049"/>
	
		<circle fill="none" stroke="#000000" stroke-width="0.25" stroke-linecap="round" stroke-linejoin="round" stroke-miterlimit="10" cx="300.5" cy="300" r="244.667"/>
</g>
<g id="numbers">
	<path d="M433.107,65.151c0.757-1.43,0.421-2.438-1.093-3.196c-1.43-0.925-2.691-0.589-3.532,0.925l1.262,0.673
		c0.504-0.673,1.009-0.841,1.598-0.504c0.673,0.253,0.673,0.673,0.336,1.345c-0.337,0.672-0.925,0.757-1.598,0.253l-0.336-0.085
		l-0.421,0.925c1.009,0.504,1.345,1.177,0.925,1.849c-0.504,0.841-0.925,1.009-1.598,0.589c-0.673-0.336-0.841-1.009-0.421-1.766
		l0,0l-1.262-0.757c-0.841,1.513-0.504,2.691,1.093,3.7c1.513,0.757,2.691,0.504,3.532-0.841c0.421-0.841,0.421-1.598,0-2.27
		C432.183,65.992,432.687,65.739,433.107,65.151z"/>
	<path d="M437.48,65.151c-1.43-1.009-2.943-0.253-4.288,2.102c-1.345,2.355-1.345,4.036,0.336,4.96
		c1.43,0.925,2.943,0.168,4.456-2.187C439.33,67.758,439.162,66.076,437.48,65.151z M436.471,69.271
		c-0.841,1.598-1.681,2.27-2.355,1.849c-0.673-0.421-0.589-1.43,0.421-3.111c1.009-1.513,1.766-2.018,2.438-1.766
		C437.648,66.665,437.48,67.59,436.471,69.271z"/>
	<path d="M469.852,93.824l-0.673-0.673l3.111-3.868l-1.43-1.009l-5.213,1.849l-1.009,1.093l2.523,1.849l-1.262,1.43l1.262,1.009
		l1.177-1.345l0.673,0.504L469.852,93.824z M470.02,89.619h0.085l-2.186,2.607l-1.513-1.262L470.02,89.619z"/>
	<path d="M475.654,92.226c-1.345-1.262-2.943-0.757-4.709,1.345c-1.766,2.018-2.019,3.615-0.589,4.877
		c1.513,1.177,3.111,0.757,4.792-1.345C476.916,95.001,476.999,93.403,475.654,92.226z M473.973,96.094
		c-1.261,1.345-2.186,1.849-2.859,1.43c-0.504-0.504-0.168-1.43,1.093-2.859c1.262-1.513,2.186-2.018,2.607-1.513
		C475.486,93.739,475.15,94.665,473.973,96.094z"/>
	<path fill="#FFFFFF" d="M310.764,13.438h-1.766l2.607,4.036l-2.775,4.288h1.849l1.849-3.027l1.934,2.943h1.766l-2.859-4.288
		l2.607-4.036h-1.681l-1.849,2.691L310.764,13.438z"/>
	<path fill="#FFFFFF" d="M308.157,13.438l-4.624,0.085l0.085,8.324l4.541-0.085v-1.513h-2.943l-0.085-2.187l3.027-0.085v-1.513
		l-3.027,0.085v-1.43l3.027-0.085v-1.596H308.157z"/>
	<path fill="#FFFFFF" d="M302.02,17.727c0-0.841-0.168-1.681-0.589-2.27c-0.336-0.673-0.841-1.177-1.43-1.43
		c-0.589-0.421-1.43-0.504-2.691-0.504h-1.849l0.085,8.409h1.849c1.093-0.085,1.934-0.168,2.355-0.336
		c0.421-0.085,0.841-0.336,1.177-0.757c0.336-0.336,0.673-0.757,0.925-1.262C302.02,18.988,302.103,18.4,302.02,17.727z
		 M300.422,17.727c0.085,0.589,0,1.177-0.168,1.43c-0.253,0.421-0.504,0.673-0.841,0.841c-0.336,0.253-0.841,0.253-1.598,0.253
		l-0.757,0.085v-5.213h0.504c1.009-0.085,1.766,0.085,2.187,0.504C300.254,16.13,300.422,16.887,300.422,17.727z"/>
	<path fill="#FFFFFF" d="M293.526,13.523h-1.513v5.549l-3.532-5.466h-1.513v8.324h1.598l-0.085-5.381l3.7,5.381h1.513
		L293.526,13.523z"/>
	<path fill="#FFFFFF" d="M285.119,13.691h-1.513v8.324h1.513V13.691z"/>
	<path d="M502.813,121.236l2.102,2.523l1.009-0.841l-2.859-3.364l-3.7,2.438l0.925,1.177c0.421-0.168,0.757,0.085,1.093,0.421
		c0.504,0.589,0.336,1.262-0.336,1.766c-0.757,0.589-1.43,0.673-1.934,0.085c-0.421-0.504-0.336-1.093,0.085-1.598l-0.925-1.262
		c-1.177,1.177-1.177,2.355-0.085,3.615c1.177,1.43,2.607,1.598,3.952,0.253c1.43-1.093,1.513-2.27,0.336-3.447
		c-0.336-0.421-0.757-0.673-1.177-0.757L502.813,121.236z"/>
	<path d="M503.655,126.364c-2.102,1.766-2.523,3.364-1.43,4.709c1.262,1.43,2.943,1.177,5.045-0.421
		c2.018-1.849,2.438-3.447,1.345-4.792C507.439,124.515,505.756,124.598,503.655,126.364z M503.318,130.317
		c-0.504-0.589-0.085-1.513,1.345-2.691c1.513-1.262,2.438-1.513,2.943-0.925c0.504,0.504,0,1.513-1.43,2.775
		C504.664,130.653,503.823,130.905,503.318,130.317z"/>
	<path d="M341.035,32.526l-0.085,1.177l1.766,0.168l-0.757,5.466l1.598,0.253l1.177-7.904l-1.177-0.168
		c-0.253,0.925-1.093,1.345-2.27,1.093L341.035,32.526z"/>
	<path d="M349.863,32.61c-1.766-0.421-2.943,0.841-3.447,3.615c-0.504,2.607,0.253,4.036,2.019,4.373
		c1.849,0.336,2.859-0.841,3.447-3.532C352.385,34.46,351.713,32.946,349.863,32.61z M349.695,33.788
		c0.757,0.085,1.009,1.177,0.589,3.027c-0.253,1.849-0.841,2.775-1.513,2.691c-0.757-0.168-1.009-1.177-0.673-3.111
		C348.35,34.46,348.938,33.62,349.695,33.788z"/>
	<path d="M254.764,32.526c-1.766,0.336-2.438,1.766-1.849,4.541c0.504,2.607,1.513,3.784,3.364,3.447
		c1.766-0.336,2.438-1.766,1.934-4.456C257.709,33.368,256.613,32.105,254.764,32.526z M256.024,39.337
		c-0.757,0-1.262-0.841-1.681-2.607c-0.253-1.766,0-2.859,0.673-2.943c0.673-0.085,1.262,0.673,1.681,2.438
		C256.95,38.244,256.698,39.253,256.024,39.337z"/>
	<path d="M246.44,35.469l0.336,1.177l1.934-0.421l1.009,5.466l1.598-0.421l-1.598-7.82l-1.345,0.253
		c0.085,0.925-0.421,1.513-1.598,1.766C246.776,35.469,246.44,35.469,246.44,35.469z"/>
	<path d="M211.544,43.793c-1.681,0.589-2.102,2.187-1.262,4.792c1.009,2.691,2.355,3.615,4.036,2.943
		c1.766-0.589,2.187-2.27,1.262-4.792C214.655,44.214,213.225,43.204,211.544,43.793z M211.88,48.081
		c-0.673-1.766-0.589-2.775,0.085-3.027c0.757-0.336,1.43,0.421,2.018,2.27c0.673,1.681,0.673,2.691,0,2.943
		C213.225,50.604,212.553,49.847,211.88,48.081z"/>
	<path d="M208.938,47.493c-0.589-1.513-1.766-2.018-3.447-1.43c-1.681,0.673-2.102,1.849-1.43,3.615l1.43-0.504
		c-0.336-1.009-0.085-1.598,0.504-1.849c0.757-0.253,1.262-0.085,1.43,0.673c0.253,0.504-0.168,1.513-1.009,2.943
		c-0.841,1.093-1.009,2.355-0.589,3.615l5.13-1.934l-0.504-1.262l-3.279,1.177c0-0.336,0.336-0.925,1.177-2.018
		C209.021,49.343,209.274,48.418,208.938,47.493z"/>
	<path d="M173.37,65.739c-1.345-2.355-2.775-3.027-4.373-2.102c-1.598,0.925-1.766,2.523-0.421,4.96
		c1.345,2.27,2.943,3.027,4.541,2.187C174.63,69.86,174.798,68.178,173.37,65.739z M169.501,64.814
		c0.757-0.421,1.598,0.168,2.523,1.849c0.925,1.598,1.093,2.607,0.421,2.943c-0.673,0.421-1.43-0.168-2.355-1.849
		C169.081,66.16,168.997,65.151,169.501,64.814z"/>
	<path d="M165.214,71.121c1.093-0.504,1.681-0.504,2.102,0.085c0.336,0.673,0.253,1.177-0.421,1.681
		c-0.673,0.421-1.262,0.253-1.598-0.589l-1.345,0.673c0.841,1.598,2.102,1.934,3.784,1.009c1.513-1.009,1.766-2.187,0.925-3.7
		c-0.504-0.841-1.093-1.093-2.018-0.841c0.504-0.673,0.504-1.262,0.085-1.934c-0.757-1.262-1.934-1.43-3.196-0.589
		c-1.598,0.841-1.849,2.102-1.009,3.447l1.345-0.673c-0.504-0.757-0.421-1.345,0.168-1.598c0.504-0.336,1.009-0.336,1.43,0.253
		c0.336,0.673,0.168,1.177-0.673,1.681l-0.168,0.085L165.214,71.121z"/>
	<path d="M105.008,127.122c1.177-1.345,0.757-2.859-1.345-4.624c-2.102-1.766-3.7-2.019-4.877-0.589
		c-1.177,1.345-0.757,2.943,1.345,4.709C102.149,128.467,103.747,128.719,105.008,127.122z M102.653,123.674
		c1.513,1.262,2.018,2.187,1.513,2.691c-0.589,0.589-1.598,0.253-2.943-0.925c-1.513-1.262-2.018-2.187-1.513-2.691
		C100.216,122.076,101.308,122.496,102.653,123.674z"/>
	<path d="M100.552,128.13c-1.345-1.093-2.607-1.009-3.532,0.168c-0.336,0.421-0.589,0.841-0.589,1.43l-1.262-1.345l2.27-2.523
		l-1.177-0.841l-2.775,3.364l3.027,3.279l1.009-1.009c-0.253-0.336-0.085-0.757,0.168-1.177c0.589-0.757,1.093-0.757,1.849,0
		c0.841,0.589,0.925,1.177,0.421,1.766c-0.336,0.504-0.925,0.589-1.598,0.168l-0.925,1.262c1.345,0.925,2.523,0.757,3.447-0.504
		C102.065,130.821,102.065,129.475,100.552,128.13z"/>
	<path d="M130.906,96.599l-0.757,0.589l-3.279-3.784l-1.262,1.262l0.925,5.549l0.925,1.009l2.438-2.102l1.093,1.43l1.177-1.093
		l-1.177-1.262l0.757-0.673L130.906,96.599z M126.786,95.59h0.085c0.504,0.757,1.262,1.598,2.187,2.607l-1.598,1.345L126.786,95.59z
		"/>
	<path fill="#F5F7FC" d="M126.871,95.59h-0.085l0.673,3.952l1.598-1.345C128.131,97.188,127.375,96.347,126.871,95.59z"/>
	<path d="M135.11,91.89c-1.849-2.018-3.364-2.523-4.792-1.43c-1.43,1.262-1.262,2.859,0.589,4.96
		c1.681,2.102,3.279,2.523,4.709,1.345C137.044,95.59,136.876,93.992,135.11,91.89z M134.774,95.926
		c-0.504,0.421-1.513,0-2.691-1.513c-1.177-1.43-1.598-2.438-0.925-2.943c0.589-0.504,1.43,0,2.691,1.513
		C135.11,94.328,135.363,95.253,134.774,95.926z"/>
	<path d="M395.438,45.055c-1.849-0.673-3.111,0.253-4.12,2.859c-0.841,2.523-0.421,4.12,1.262,4.792
		c1.598,0.673,3.027-0.421,3.952-2.943C397.539,47.241,397.119,45.644,395.438,45.055z M392.83,48.418
		c0.673-1.681,1.345-2.438,2.018-2.187c0.757,0.168,0.841,1.262,0.253,3.027c-0.673,1.849-1.345,2.523-2.186,2.27
		C392.242,51.277,392.242,50.183,392.83,48.418z"/>
	<path d="M390.981,46.064c0.673-1.513,0.085-2.607-1.766-3.196c-1.598-0.673-2.775-0.085-3.279,1.766l1.345,0.421
		c0.421-0.841,0.925-1.093,1.598-0.841c0.673,0.168,0.925,0.589,0.673,1.262c-0.253,0.589-1.093,1.177-2.691,1.598
		c-1.345,0.421-2.355,1.262-2.775,2.438l5.13,1.849l0.504-1.345l-3.279-1.177c0.168-0.253,0.925-0.421,2.102-0.757
		C389.804,47.661,390.645,47.072,390.981,46.064z"/>
</g>
</svg>
